{
  "accessors": [
    {
      "bufferView": 1,
      "componentType": 5126,
      "count": 7508,
      "max": [
        97.0,
        -0.0,
        98.41699981689453
      ],
      "min": [
        -93.0,
        -65.0,
        -97.41799926757813
      ],
      "type": "VEC3"
    },
    {
      "bufferView": 1,
      "byteOffset": 90096,
      "componentType": 5126,
      "count": 7508,
      "max": [
        1.0,
        1.0,
        1.0
      ],
      "min": [
        -1.0,
        -1.0,
        -1.0
      ],
      "type": "VEC3"
    },
    {
      "bufferView": 0,
      "componentType": 5125,
      "count": 21855,
      "type": "SCALAR"
    },
    {
      "bufferView": 1,
      "byteOffset": 180192,
      "componentType": 5126,
      "count": 2784,
      "max": [
        98.0,
        -0.875,
        67.61299896240234
      ],
      "min": [
        -93.0,
        -63.0,
        -97.0
      ],
      "type": "VEC3"
    },
    {
      "bufferView": 1,
      "byteOffset": 213600,
      "componentType": 5126,
      "count": 2784,
      "max": [
        1.0,
        1.0,
        1.0
      ],
      "min": [
        -1.0,
        -1.0,
        -1.0
      ],
      "type": "VEC3"
    },
    {
      "bufferView": 0,
      "byteOffset": 87420,
      "componentType": 5125,
      "count": 6534,
      "type": "SCALAR"
    },
    {
      "bufferView": 1,
      "byteOffset": 247008,
      "componentType": 5126,
      "count": 144,
      "max": [
        41.0,
        -2.0,
        -61.0
      ],
      "min": [
        20.0,
        -8.0,
        -66.0
      ],
      "type": "VEC3"
    },
    {
      "bufferView": 1,
      "byteOffset": 248736,
      "componentType": 5126,
      "count": 144,
      "max": [
        1.0,
        1.0,
        0.9997918009757996
      ],
      "min": [
        -1.0,
        -1.0,
        -0.9997918009757996
      ],
      "type": "VEC3"
    },
    {
      "bufferView": 0,
      "byteOffset": 113556,
      "componentType": 5125,
      "count": 402,
      "type": "SCALAR"
    },
    {
      "bufferView": 1,
      "byteOffset": 250464,
      "componentType": 5126,
      "count": 18227,
      "max": [
        94.0,
        -0.0,
        79.0
      ],
      "min": [
        -77.0,
        -66.39199829101563,
        -69.72200012207031
      ],
      "type": "VEC3"
    },
    {
      "bufferView": 1,
      "byteOffset": 469188,
      "componentType": 5126,
      "count": 18227,
      "max": [
        1.0,
        1.0,
        1.0
      ],
      "min": [
        -1.0,
        -1.0,
        -1.0
      ],
      "type": "VEC3"
    },
    {
      "bufferView": 0,
      "byteOffset": 115164,
      "componentType": 5125,
      "count": 50394,
      "type": "SCALAR"
    },
    {
      "bufferView": 1,
      "byteOffset": 687912,
      "componentType": 5126,
      "count": 567,
      "max": [
        71.11599731445313,
        -0.0,
        69.76200103759766
      ],
      "min": [
        -66.76300048828125,
        -9.0,
        -70.76200103759766
      ],
      "type": "VEC3"
    },
    {
      "bufferView": 1,
      "byteOffset": 694716,
      "componentType": 5126,
      "count": 567,
      "max": [
        0.9999999403953552,
        1.0,
        1.0
      ],
      "min": [
        -1.0,
        -1.0,
        -1.0
      ],
      "type": "VEC3"
    },
    {
      "bufferView": 0,
      "byteOffset": 316740,
      "componentType": 5125,
      "count": 1287,
      "type": "SCALAR"
    },
    {
      "bufferView": 1,
      "byteOffset": 701520,
      "componentType": 5126,
      "count": 3186,
      "max": [
        93.0,
        -4.559000015258789,
        100.58799743652344
      ],
      "min": [
        -60.99300003051758,
        -17.0,
        -99.58799743652344
      ],
      "type": "VEC3"
    },
    {
      "bufferView": 1,
      "byteOffset": 739752,
      "componentType": 5126,
      "count": 3186,
      "max": [
        1.0,
        1.0,
        1.0
      ],
      "min": [
        -1.0,
        -1.0,
        -1.0
      ],
      "type": "VEC3"
    },
    {
      "bufferView": 0,
      "byteOffset": 321888,
      "componentType": 5125,
      "count": 8148,
      "type": "SCALAR"
    },
    {
      "bufferView": 1,
      "byteOffset": 777984,
      "componentType": 5126,
      "count": 5687,
      "max": [
        78.76200103759766,
        -9.4399995803833,
        39.47800064086914
      ],
      "min": [
        -10.769000053405762,
        -66.39199829101563,
        -76.0
      ],
      "type": "VEC3"
    },
    {
      "bufferView": 1,
      "byteOffset": 846228,
      "componentType": 5126,
      "count": 5687,
      "max": [
        1.0,
        1.0,
        1.0
      ],
      "min": [
        -1.0,
        -1.0,
        -1.0
      ],
      "type": "VEC3"
    },
    {
      "bufferView": 0,
      "byteOffset": 354480,
      "componentType": 5125,
      "count": 16110,
      "type": "SCALAR"
    },
    {
      "bufferView": 1,
      "byteOffset": 914472,
      "componentType": 5126,
      "count": 1010,
      "max": [
        102.0,
        -0.0,
        100.0
      ],
      "min": [
        -99.0,
        -25.0,
        -100.0
      ],
      "type": "VEC3"
    },
    {
      "bufferView": 1,
      "byteOffset": 926592,
      "componentType": 5126,
      "count": 1010,
      "max": [
        1.0,
        1.0,
        1.0
      ],
      "min": [
        -1.0,
        -1.0,
        -1.0
      ],
      "type": "VEC3"
    },
    {
      "bufferView": 0,
      "byteOffset": 418920,
      "componentType": 5125,
      "count": 3114,
      "type": "SCALAR"
    },
    {
      "bufferView": 1,
      "byteOffset": 938712,
      "componentType": 5126,
      "count": 16,
      "max": [
        77.76200103759766,
        -0.875,
        -26.0
      ],
      "min": [
        77.0,
        -6.119999885559082,
        -31.0
      ],
      "type": "VEC3"
    },
    {
      "bufferView": 1,
      "byteOffset": 938904,
      "componentType": 5126,
      "count": 16,
      "max": [
        0.0,
        0.0,
        1.0
      ],
      "min": [
        -1.0,
        -1.0,
        -1.0
      ],
      "type": "VEC3"
    },
    {
      "bufferView": 0,
      "byteOffset": 431376,
      "componentType": 5125,
      "count": 24,
      "type": "SCALAR"
    },
    {
      "bufferView": 1,
      "byteOffset": 939096,
      "componentType": 5126,
      "count": 670,
      "max": [
        77.76200103759766,
        -0.0,
        73.0
      ],
      "min": [
        -73.0,
        -7.920000076293945,
        -74.0
      ],
      "type": "VEC3"
    },
    {
      "bufferView": 1,
      "byteOffset": 947136,
      "componentType": 5126,
      "count": 670,
      "max": [
        1.0,
        1.0,
        1.0
      ],
      "min": [
        -1.0,
        -1.0,
        -1.0
      ],
      "type": "VEC3"
    },
    {
      "bufferView": 0,
      "byteOffset": 431472,
      "componentType": 5125,
      "count": 1206,
      "type": "SCALAR"
    },
    {
      "bufferView": 1,
      "byteOffset": 955176,
      "componentType": 5126,
      "count": 34,
      "max": [
        93.0,
        -1.0,
        75.0
      ],
      "min": [
        0.0,
        -17.0,
        -73.0
      ],
      "type": "VEC3"
    },
    {
      "bufferView": 1,
      "byteOffset": 955584,
      "componentType": 5126,
      "count": 34,
      "max": [
        1.0,
        1.0,
        1.0
      ],
      "min": [
        -1.0,
        -1.0,
        -1.0
      ],
      "type": "VEC3"
    },
    {
      "bufferView": 0,
      "byteOffset": 436296,
      "componentType": 5125,
      "count": 48,
      "type": "SCALAR"
    }
  ],
  "asset": {
    "extras": {
      "author": "ethompson1 (https://sketchfab.com/ethompson1)",
      "license": "CC-BY-4.0 (http://creativecommons.org/licenses/by/4.0/)",
      "source": "https://sketchfab.com/3d-models/sustainable-city-ar-f8417629d0274bdd8d3f4f75bf1f1645",
      "title": "Sustainable City AR"
    },
    "generator": "Sketchfab-12.67.0",
    "version": "2.0"
  },
  "bufferViews": [
    {
      "buffer": 0,
      "byteLength": 436488,
      "name": "floatBufferViews",
      "target": 34963
    },
    {
      "buffer": 0,
      "byteLength": 955992,
      "byteOffset": 436488,
      "byteStride": 12,
      "name": "floatBufferViews",
      "target": 34962
    }
  ],
  "buffers": [
    {
      "byteLength": 1392480,
      "uri": "scene.bin"
    }
  ],
  "materials": [
    {
      "doubleSided": true,
      "name": "color_10988977",
      "pbrMetallicRoughness": {
        "baseColorFactor": [
          0.654902,
          0.678431,
          0.694118,
          1.0
        ],
        "metallicFactor": 0.0
      }
    },
    {
      "doubleSided": true,
      "name": "color_11593967",
      "pbrMetallicRoughness": {
        "baseColorFactor": [
          0.690196,
          0.909804,
          0.937255,
          1.0
        ],
        "metallicFactor": 0.0
      }
    },
    {
      "doubleSided": true,
      "name": "color_12568524",
      "pbrMetallicRoughness": {
        "baseColorFactor": [
          0.74902,
          0.780392,
          0.8,
          1.0
        ],
        "metallicFactor": 0.0
      }
    },
    {
      "doubleSided": true,
      "name": "color_15277357",
      "pbrMetallicRoughness": {
        "baseColorFactor": [
          0.913725,
          0.113725,
          0.176471,
          1.0
        ],
        "metallicFactor": 0.0
      }
    },
    {
      "doubleSided": true,
      "name": "color_2829873",
      "pbrMetallicRoughness": {
        "baseColorFactor": [
          0.168627,
          0.180392,
          0.192157,
          1.0
        ],
        "metallicFactor": 0.0
      }
    },
    {
      "doubleSided": true,
      "name": "color_30377",
      "pbrMetallicRoughness": {
        "baseColorFactor": [
          0.0,
          0.462745,
          0.662745,
          1.0
        ],
        "metallicFactor": 0.0
      }
    },
    {
      "doubleSided": true,
      "name": "color_40919",
      "pbrMetallicRoughness": {
        "baseColorFactor": [
          0.0,
          0.623529,
          0.843137,
          1.0
        ],
        "metallicFactor": 0.0
      }
    },
    {
      "doubleSided": true,
      "name": "color_4634441",
      "pbrMetallicRoughness": {
        "baseColorFactor": [
          0.27451,
          0.717647,
          0.286275,
          1.0
        ],
        "metallicFactor": 0.0
      }
    },
    {
      "doubleSided": true,
      "name": "color_6306067",
      "pbrMetallicRoughness": {
        "baseColorFactor": [
          0.376471,
          0.223529,
          0.0745098,
          1.0
        ],
        "metallicFactor": 0.0
      }
    },
    {
      "doubleSided": true,
      "name": "color_6383466",
      "pbrMetallicRoughness": {
        "baseColorFactor": [
          0.380392,
          0.403922,
          0.415686,
          1.0
        ],
        "metallicFactor": 0.0
      }
    },
    {
      "doubleSided": true,
      "name": "color_9771553",
      "pbrMetallicRoughness": {
        "baseColorFactor": [
          0.584314,
          0.101961,
          0.129412,
          1.0
        ],
        "metallicFactor": 0.0
      }
    }
  ],
  "meshes": [
    {
      "name": "Object_0",
      "primitives": [
        {
          "attributes": {
            "NORMAL": 1,
            "POSITION": 0
          },
          "indices": 2,
          "material": 0,
          "mode": 4
        }
      ]
    },
    {
      "name": "Object_1",
      "primitives": [
        {
          "attributes": {
            "NORMAL": 4,
            "POSITION": 3
          },
          "indices": 5,
          "material": 1,
          "mode": 4
        }
      ]
    },
    {
      "name": "Object_2",
      "primitives": [
        {
          "attributes": {
            "NORMAL": 7,
            "POSITION": 6
          },
          "indices": 8,
          "material": 2,
          "mode": 4
        }
      ]
    },
    {
      "name": "Object_3",
      "primitives": [
        {
          "attributes": {
            "NORMAL": 10,
            "POSITION": 9
          },
          "indices": 11,
          "material": 3,
          "mode": 4
        }
      ]
    },
    {
      "name": "Object_4",
      "primitives": [
        {
          "attributes": {
            "NORMAL": 13,
            "POSITION": 12
          },
          "indices": 14,
          "material": 4,
          "mode": 4
        }
      ]
    },
    {
      "name": "Object_5",
      "primitives": [
        {
          "attributes": {
            "NORMAL": 16,
            "POSITION": 15
          },
          "indices": 17,
          "material": 5,
          "mode": 4
        }
      ]
    },
    {
      "name": "Object_6",
      "primitives": [
        {
          "attributes": {
            "NORMAL": 19,
            "POSITION": 18
          },
          "indices": 20,
          "material": 6,
          "mode": 4
        }
      ]
    },
    {
      "name": "Object_7",
      "primitives": [
        {
          "attributes": {
            "NORMAL": 22,
            "POSITION": 21
          },
          "indices": 23,
          "material": 7,
          "mode": 4
        }
      ]
    },
    {
      "name": "Object_8",
      "primitives": [
        {
          "attributes": {
            "NORMAL": 25,
            "POSITION": 24
          },
          "indices": 26,
          "material": 8,
          "mode": 4
        }
      ]
    },
    {
      "name": "Object_9",
      "primitives": [
        {
          "attributes": {
            "NORMAL": 28,
            "POSITION": 27
          },
          "indices": 29,
          "material": 9,
          "mode": 4
        }
      ]
    },
    {
      "name": "Object_10",
      "primitives": [
        {
          "attributes": {
            "NORMAL": 31,
            "POSITION": 30
          },
          "indices": 32,
          "material": 10,
          "mode": 4
        }
      ]
    }
  ],
  "nodes": [
    {
      "children": [
        1
      ],
      "matrix": [
        0.34835419058799744,
        0.0,
        0.0,
        0.0,
        0.0,
        -0.34833070703807145,
        0.004044183681509084,
        0.0,
        0.0,
        -0.004044183681509084,
        -0.34833070703807145,
        0.0,
        0.0,
        -32.89636230468751,
        33.87522888183593,
        1.0
      ],
      "name": "Sketchfab_model"
    },
    {
      "children": [
        2,
        3,
        4,
        5,
        6,
        7,
        8,
        9,
        10,
        11,
        12
      ],
      "name": "tinker.obj.cleaner.materialmerger.gles"
    },
    {
      "mesh": 0,
      "name": "Object_2"
    },
    {
      "mesh": 1,
      "name": "Object_3"
    },
    {
      "mesh": 2,
      "name": "Object_4"
    },
    {
      "mesh": 3,
      "name": "Object_5"
    },
    {
      "mesh": 4,
      "name": "Object_6"
    },
    {
      "mesh": 5,
      "name": "Object_7"
    },
    {
      "mesh": 6,
      "name": "Object_8"
    },
    {
      "mesh": 7,
      "name": "Object_9"
    },
    {
      "mesh": 8,
      "name": "Object_10"
    },
    {
      "mesh": 9,
      "name": "Object_11"
    },
    {
      "mesh": 10,
      "name": "Object_12"
    }
  ],
  "scene": 0,
  "scenes": [
    {
      "name": "Sketchfab_Scene",
      "nodes": [
        0
      ]
    }
  ]
}
